<?xml version="1.0" standalone="no"?>
<!DOCTYPE svg PUBLIC "-//W3C//DTD SVG 20010904//EN"
 "http://www.w3.org/TR/2001/REC-SVG-20010904/DTD/svg10.dtd">
<svg version="1.0" xmlns="http://www.w3.org/2000/svg"
 width="300.000000pt" height="300.000000pt" viewBox="0 0 300.000000 300.000000"
 preserveAspectRatio="xMidYMid meet">
<metadata>
Created by potrace 1.11, written by Peter Selinger 2001-2013
</metadata>
<g transform="translate(0.000000,300.000000) scale(0.100000,-0.100000)"
fill="#000000" stroke="none">
<path d="M2100 2932 c0 -5 -10 -8 -22 -7 -13 1 -30 -2 -38 -6 -19 -10 -54 -21
-59 -19 -2 1 -7 -2 -10 -7 -3 -4 -24 -17 -46 -28 -38 -19 -69 -41 -106 -77 -9
-9 -20 -14 -23 -10 -3 3 -6 0 -6 -6 0 -15 -36 -52 -51 -52 -5 0 -7 -5 -4 -10
4 -6 -6 -23 -22 -39 -27 -28 -35 -43 -36 -68 0 -7 -4 -13 -9 -13 -10 0 -32
-50 -29 -66 0 -6 -5 -17 -13 -23 -8 -6 -12 -21 -9 -31 3 -11 1 -20 -5 -20 -13
0 -15 -266 -2 -291 5 -9 12 -31 15 -48 6 -33 24 -71 38 -82 5 -3 8 -10 8 -15
-1 -15 23 -64 32 -64 5 0 5 -4 2 -10 -3 -5 1 -10 9 -10 9 0 16 -7 16 -15 0 -8
4 -15 10 -15 5 0 9 -6 7 -12 -1 -7 4 -12 11 -11 6 2 12 -2 12 -8 0 -17 72 -79
83 -72 6 3 7 1 3 -5 -3 -6 3 -13 14 -17 11 -4 18 -11 14 -16 -3 -5 -2 -8 3 -7
4 1 36 -12 71 -30 34 -17 64 -32 67 -32 25 -2 66 -14 71 -21 8 -14 294 -11
294 2 0 6 9 9 20 6 10 -3 20 -1 22 4 2 5 12 10 23 12 11 2 31 9 45 17 14 8 27
15 30 16 3 1 15 5 28 9 12 4 22 11 22 16 0 5 6 8 13 6 6 -1 11 4 10 11 -2 6 2
13 7 13 6 1 14 2 19 3 31 4 211 229 197 244 -3 2 1 11 9 19 8 8 15 26 15 39 0
14 4 23 9 20 5 -3 8 8 7 24 -1 17 2 30 7 30 8 0 4 281 -5 310 -3 8 -9 29 -13
45 -4 17 -11 32 -14 35 -6 5 -41 77 -41 85 0 3 -9 14 -20 25 -12 12 -25 32
-30 45 -5 14 -16 25 -24 25 -7 0 -16 9 -19 20 -3 11 -12 20 -21 20 -9 0 -16 5
-16 11 0 17 -24 36 -40 31 -8 -3 -12 -1 -8 3 8 9 -32 42 -44 37 -5 -1 -8 2 -8
8 0 5 -7 10 -15 10 -8 0 -15 4 -15 10 0 5 -7 7 -15 4 -8 -4 -15 -1 -15 6 0 6
-4 8 -10 5 -5 -3 -10 -2 -10 3 0 5 -15 13 -32 17 -18 4 -40 10 -48 13 -28 9
-310 14 -310 4z"/>
<path d="M720 2883 c-8 -16 -14 -32 -14 -36 -1 -5 -9 -15 -20 -22 -10 -8 -15
-18 -11 -24 3 -6 2 -11 -3 -11 -5 0 -12 -9 -15 -20 -3 -11 -6 -24 -7 -28 -2
-4 -11 -13 -22 -20 -10 -7 -16 -18 -13 -23 4 -5 2 -9 -2 -9 -5 0 -15 -16 -22
-35 -7 -19 -16 -35 -20 -35 -4 0 -13 -16 -21 -35 -8 -19 -17 -35 -22 -35 -7 0
-40 -64 -42 -83 -1 -4 -6 -11 -13 -15 -7 -4 -22 -29 -33 -55 -12 -27 -28 -51
-35 -53 -8 -3 -11 -12 -8 -20 3 -8 0 -14 -7 -14 -6 0 -8 -5 -5 -10 3 -6 -1
-13 -9 -16 -9 -3 -13 -11 -9 -17 3 -5 -1 -15 -9 -21 -13 -10 -28 -39 -27 -52
0 -4 -3 -10 -8 -13 -10 -8 -26 -33 -55 -91 -13 -25 -26 -47 -31 -48 -4 -2 -14
-18 -22 -35 -29 -61 -73 -140 -82 -146 -4 -3 -17 -24 -28 -46 -11 -22 -30 -54
-42 -71 -13 -17 -20 -34 -16 -37 3 -4 1 -7 -5 -7 -7 0 -12 -9 -12 -20 0 -20 7
-20 720 -20 713 0 720 0 720 20 0 11 -5 20 -12 20 -6 0 -8 3 -5 7 4 3 -3 20
-16 37 -12 17 -31 49 -42 71 -11 22 -23 42 -28 43 -4 2 -19 27 -33 55 -13 29
-43 81 -65 117 -23 36 -45 74 -50 85 -12 27 -32 59 -42 66 -5 3 -8 8 -7 10 4
9 -20 59 -29 59 -7 0 -22 35 -20 48 0 2 -10 12 -22 23 -12 10 -19 19 -14 19 4
0 2 7 -5 15 -7 8 -9 15 -4 15 5 0 5 4 -1 8 -13 9 -30 36 -58 92 -12 25 -25 46
-29 48 -4 2 -19 28 -33 58 -14 30 -30 54 -35 54 -6 0 -10 3 -9 8 2 14 -13 52
-21 52 -5 0 -20 24 -34 53 -31 62 -48 90 -59 98 -5 3 -8 8 -7 10 6 12 -26 59
-40 59 -9 0 -23 -12 -30 -27z"/>
<path d="M1896 1109 l-359 -359 292 -292 c160 -160 291 -295 291 -299 0 -5 5
-9 11 -9 6 0 36 -27 66 -60 31 -33 61 -60 66 -60 16 0 707 696 707 712 0 16
-506 528 -521 528 -5 0 -9 4 -9 8 0 7 -178 193 -184 192 0 -1 -163 -163 -360
-361z"/>
<path d="M100 740 l0 -640 640 0 640 0 0 640 0 640 -640 0 -640 0 0 -640z"/>
</g>
</svg>
